<?xml version="1.0" encoding="UTF-8"?>
<svg width="121px" height="28px" viewBox="0 0 121 28" version="1.1" xmlns="http://www.w3.org/2000/svg" xmlns:xlink="http://www.w3.org/1999/xlink">
    <!-- Generator: Sketch 55.2 (78181) - https://sketchapp.com -->
    <title>Group 4</title>
    <desc>Created with Sketch.</desc>
    <defs>
        <polygon id="path-1" points="0.177290323 0.0897953571 5.99245161 0.0897953571 5.99245161 17.1 0.177290323 17.1"></polygon>
        <polygon id="path-3" points="0 0.0898564286 18.97376 0.0898564286 18.97376 17.1 0 17.1"></polygon>
        <polygon id="path-5" points="0.0613958333 0.0898564286 19.8280625 0.0898564286 19.8280625 17.1 0.0613958333 17.1"></polygon>
        <polygon id="path-7" points="0 0 8 0 8 24 0 24"></polygon>
    </defs>
    <g id="Page-1" stroke="none" stroke-width="1" fill="none" fill-rule="evenodd">
        <g id="Homepage" transform="translate(-715.000000, -4474.000000)">
            <g id="Group-4" transform="translate(715.000000, 4474.000000)">
                <g id="Group-19" transform="translate(34.000000, 6.000000)">
                    <g id="Group-3" transform="translate(40.000000, 0.000000)">
                        <mask id="mask-2" fill="white">
                            <use xlink:href="#path-1"></use>
                        </mask>
                        <g id="Clip-2"></g>
                        <path d="M0.177290323,0.627020357 C0.524903226,0.693384643 1.77270968,1.08017036 1.77270968,2.0210775 L1.77270968,17.1000204 L5.99245161,17.1000204 L5.99245161,0.0897953571 L0.177290323,0.0897953571 L0.177290323,0.627020357 Z" id="Fill-1" fill="#010202" mask="url(#mask-2)"></path>
                    </g>
                    <g id="Group-6">
                        <mask id="mask-4" fill="white">
                            <use xlink:href="#path-3"></use>
                        </mask>
                        <g id="Clip-5"></g>
                        <path d="M6.2936,0.0898564286 L6.2936,0.627081429 C6.8222,0.739452857 7.967,1.06883143 7.503,2.13045643 L1,17.1000814 L4.4356,17.1000814 L6.4718,12.4342243 L13.6754,12.4342243 L15.4558,17.1000814 L19.9738,17.1000814 L13.5202,0.0898564286 L6.2936,0.0898564286 Z M7.3944,10.3205421 L10.3164,3.62853857 L12.8686,10.3205421 L7.3944,10.3205421 Z" id="Fill-4" fill="#010202" mask="url(#mask-4)"></path>
                    </g>
                    <g id="Group-9" transform="translate(67.000000, 0.000000)">
                        <mask id="mask-6" fill="white">
                            <use xlink:href="#path-5"></use>
                        </mask>
                        <g id="Clip-8"></g>
                        <path d="M5.57535417,0.0898564286 L5.57535417,0.627081429 C6.12389583,0.739452857 7.31847917,1.06883143 6.83347917,2.13045643 L0.0613958333,17.1000814 L3.64097917,17.1000814 L5.7586875,12.4342243 L13.2626458,12.4342243 L15.1188958,17.1000814 L19.8280625,17.1000814 L13.1022292,0.0898564286 L5.57535417,0.0898564286 Z M6.72222917,10.3205421 L9.76472917,3.62853857 L12.4243125,10.3205421 L6.72222917,10.3205421 Z" id="Fill-7" fill="#010202" mask="url(#mask-6)"></path>
                    </g>
                    <path d="M61.1968658,17 L68,0 L64.7824267,0 L59.7929881,12.4663411 L55.0460465,0 L49,0 L49,0.536902069 C49.6986832,0.676671573 50.482408,0.989779677 50.8403327,1.93012123 L56.5787692,17 L61.1968658,17 Z" id="Fill-10" fill="#010202"></path>
                    <path d="M31.195626,17 L38,0 L34.7811124,0 L29.7931586,12.4663411 L25.0447371,0 L19,0 L19,0.536902069 C19.6994579,0.676671573 20.4811934,0.989779677 20.8404918,1.93012123 L26.5760468,17 L31.195626,17 Z" id="Fill-12" fill="#010202"></path>
                </g>
                <g id="Group">
                    <g id="Group-16" transform="translate(19.000000, 0.000000)">
                        <mask id="mask-8" fill="white">
                            <use xlink:href="#path-7"></use>
                        </mask>
                        <g id="Clip-15"></g>
                        <path d="M7.99231231,23.8255478 L8,0.00318634122 L0,0 L0,0.00318634122 L2.31943944,24 C4.17169169,23.8905492 6.06334334,23.8290528 7.99231231,23.8255478" id="Fill-14" fill="#010202" mask="url(#mask-8)"></path>
                    </g>
                    <path d="M16.8611488,23.5812895 L19,0.0030795627 L19,0 L0,0.0030795627 L0.00989333272,28 C4.47367776,25.9140582 10.2847013,24.3601109 16.8611488,23.5812895" id="Fill-17" fill="#010202"></path>
                </g>
            </g>
        </g>
    </g>
</svg>