<?xml version="1.0" encoding="UTF-8"?>
<svg width="111px" height="28px" viewBox="0 0 111 28" version="1.1" xmlns="http://www.w3.org/2000/svg" xmlns:xlink="http://www.w3.org/1999/xlink">
    <!-- Generator: Sketch 55.2 (78181) - https://sketchapp.com -->
    <title>Group 24</title>
    <desc>Created with Sketch.</desc>
    <defs>
        <polygon id="path-1" points="0.217268365 0.147446809 10.5118582 0.147446809 10.5118582 27.2940426 0.217268365 27.2940426"></polygon>
    </defs>
    <g id="Page-1" stroke="none" stroke-width="1" fill="none" fill-rule="evenodd">
        <g id="Homepage" transform="translate(-497.000000, -4470.000000)">
            <g id="Group-24" transform="translate(497.000000, 4470.000000)">
                <path d="M7.60037534,25.3416085 C4.88042895,25.3416085 2.74375335,22.979183 2.63958569,19.9799064 L2.63958569,19.7502468 C2.63364611,16.7390553 4.81198391,14.2994809 7.60037534,14.2994809 C10.3887668,14.2994809 12.5671046,16.7450128 12.5671046,19.7651404 C12.5671046,22.8573532 10.3887668,25.3416085 7.60037534,25.3416085 M7.60037534,11.767566 C5.75652547,11.7738213 3.98320375,12.4759064 2.63364611,13.7335234 L2.63364611,1.22288511 C2.62263539,0.924714894 2.38099464,0.686714894 2.08310992,0.680459574 L0.54458445,0.680459574 C0.248187668,0.691480851 0.0107131367,0.929182979 0,1.22586383 L0,19.9918213 L0,20.382034 C0.0291635389,24.5242468 3.40767024,27.8583319 7.54591689,27.8296247 C7.56317694,27.8296247 7.58013941,27.8291404 7.59739946,27.8288426 C11.8380161,27.8288426 15.2007526,24.1587574 15.2007526,19.7594809 C15.2037265,15.4373532 11.840992,11.767566 7.60037534,11.767566" id="Fill-1" fill="#000000"></path>
                <path d="M36.618037,4.6006383 C35.615466,4.61046809 34.8110879,5.43229787 34.8209083,6.43553191 C34.8307287,7.43906383 35.651474,8.24451064 36.654045,8.23438298 C37.6423319,8.22485106 38.4413534,7.42506383 38.4511737,6.43553191 C38.4779566,5.44897872 37.7003614,4.62744681 36.7147528,4.6006383 C36.6823158,4.59974468 36.6501764,4.59974468 36.618037,4.6006383" id="Fill-3" fill="#000000"></path>
                <g id="Group-7" transform="translate(66.659517, 0.150455)">
                    <mask id="mask-2" fill="white">
                        <use xlink:href="#path-1"></use>
                    </mask>
                    <g id="Clip-6"></g>
                    <path d="M6.06187962,0.14893617 C2.78842118,0.14893617 0.217268365,2.21319149 0.217268365,6.64851064 L0.217268365,26.7489362 C0.227981501,27.0453191 0.465456032,27.2833191 0.761555228,27.2940426 L2.3093059,27.2940426 C2.60629786,27.2848085 2.84436756,27.0462128 2.85389035,26.7489362 L2.85389035,14.2948936 L7.47244263,14.2948936 C7.76854182,14.2841702 8.00631394,14.0461702 8.01702708,13.7497872 L8.01702708,12.5582979 C8.00780188,12.2613191 7.769137,12.0224255 7.47244263,12.0131915 L2.85389035,12.0131915 L2.85389035,6.65148936 C2.85389035,3.70851064 4.26742922,2.52 6.0231933,2.52 C7.16890375,2.52 8.31461421,3.24680851 8.81456059,3.63106383 C9.19547212,3.92893617 9.57638365,3.97361702 9.80552574,3.59234043 L10.4155794,2.59446809 C10.5878823,2.29897872 10.5239011,1.92276596 10.2638099,1.70085106 C9.1103622,0.669021277 7.60843995,0.114382979 6.06187962,0.14893617" id="Fill-5" fill="#000000" mask="url(#mask-2)"></path>
                </g>
                <path d="M92.3978879,11.7674766 C89.2256091,11.7674766 87.8120702,13.7930085 87.8120702,13.7930085 L87.5144831,12.6849234 C87.4564536,12.3718596 87.1808879,12.1463702 86.8624697,12.1517319 L85.9697083,12.1517319 C85.6661694,12.1517319 85.417089,12.3930085 85.4075662,12.6968383 L85.4075662,26.8993915 C85.4167914,27.1954766 85.6533732,27.4337745 85.9491748,27.4444979 L87.4906761,27.4444979 C87.7873705,27.4352638 88.0260354,27.1966681 88.0352606,26.8993915 L88.0352606,16.5096043 C88.9729576,15.1373064 90.5406466,14.3324553 92.2014804,14.3708809 C92.7121399,14.3735617 93.2171453,14.4745404 93.6894161,14.6687532 C94.0703276,14.8206681 94.4152311,14.8206681 94.6059845,14.3232213 L95.0642686,13.0244979 C95.4511319,11.9610936 93.5435984,11.7674766 92.3978879,11.7674766" id="Fill-8" fill="#000000"></path>
                <path d="M99.2334048,18.3206681 C99.5202788,15.8897319 101.600413,14.071817 104.045389,14.1147106 C106.375496,14.1147106 108.211609,16.1015191 108.324692,18.3206681 L99.2334048,18.3206681 Z M104.045389,11.7674766 C99.4238606,11.7674766 96.56137,15.478966 96.56137,19.8100298 C96.56137,24.2036468 99.4238606,27.852583 104.045389,27.852583 C106.682011,27.852583 108.74429,26.818966 109.660858,26.0921574 C110.235201,25.6721574 110.080456,25.4427957 109.812627,25.0972638 C109.544799,24.7517319 109.393029,24.5253489 109.163887,24.2036468 C108.8663,23.7836468 108.628231,23.9742851 108.09555,24.2781149 C106.965016,25.0040298 105.65593,25.4019872 104.313217,25.4279021 C101.602198,25.4279021 99.3494638,23.0181149 99.1947185,20.4564128 L110.205442,20.4564128 C110.566416,20.4498596 110.864003,20.1704553 110.892869,19.8100298 C110.937804,19.4671787 110.963694,19.1219447 110.970241,18.7764128 C110.961314,14.7491787 108.056863,11.7674766 104.045389,11.7674766 L104.045389,11.7674766 Z" id="Fill-10" fill="#000000"></path>
                <path d="M79.9111617,4.6006383 C78.9085906,4.61046809 78.103915,5.43229787 78.1137354,6.43553191 C78.1235558,7.43906383 78.9445987,8.24451064 79.9468721,8.23438298 C80.9354566,8.22485106 81.734478,7.42506383 81.7442984,6.43553191 C81.7707836,5.44897872 80.9934861,4.62744681 80.0075799,4.6006383 C79.9754405,4.59974468 79.9430035,4.59974468 79.9111617,4.6006383" id="Fill-12" fill="#000000"></path>
                <path d="M31.4431158,12.6968681 C31.4338906,12.400783 31.1970113,12.1624851 30.9015072,12.1517617 L29.3481024,12.1517617 C29.0511105,12.1609957 28.8127432,12.3995915 28.803518,12.6968681 L28.803518,18.7198468 L28.803518,23.0866553 C27.6789362,24.4419745 26.0192928,25.2384851 24.2593625,25.2670809 C22.1226869,25.2670809 20.8311587,23.8489106 20.8311587,20.9446553 L20.8311587,12.8785702 L20.8311587,12.8517617 L20.8311587,12.6968681 C20.8204456,12.4001872 20.5826735,12.1624851 20.2865743,12.1517617 L18.6944831,12.1517617 C18.3992767,12.1639745 18.1632901,12.4013787 18.1528745,12.6968681 L18.1528745,20.9092085 C18.1528745,24.9572936 19.6408102,27.828783 24.0748584,27.828783 C25.9329925,27.8433787 27.7200032,27.1138894 29.0386118,25.8032511 L29.3064402,26.795166 C29.4224992,27.1794213 29.5742686,27.4445277 29.9968424,27.4445277 L30.8896038,27.4445277 C31.1862981,27.4352936 31.4246654,27.1966979 31.4341882,26.8994213 L31.4341882,26.7177191 L31.4341882,12.8785702 L31.4431158,12.6968681 Z" id="Fill-14" fill="#000000"></path>
                <path d="M37.4127137,12.1517319 L35.8652606,12.1517319 C35.5682686,12.160966 35.3299013,12.3998596 35.3206761,12.6968383 L35.3206761,26.8993915 C35.3296038,27.1954766 35.5664831,27.4337745 35.8622847,27.4444979 L37.4097378,27.4444979 C37.7064322,27.4352638 37.9450971,27.1966681 37.9543223,26.8993915 L37.9543223,12.6968383 C37.9450971,12.4007532 37.7082177,12.1624553 37.4127137,12.1517319" id="Fill-16" fill="#000000"></path>
                <path d="M81.2412869,12.6968681 C81.2320617,12.400783 80.9954799,12.1624851 80.6996783,12.1517617 L79.1581769,12.1517617 C78.8614826,12.1609957 78.6228177,12.3995915 78.6135925,12.6968681 L78.6135925,18.7198468 L78.6135925,20.8526128 L78.6135925,26.8994213 C78.6228177,27.1966979 78.8614826,27.4352936 79.1581769,27.4445277 L80.70563,27.4445277 C80.9990509,27.4305277 81.2323592,27.1931234 81.2412869,26.8994213 L81.2412869,26.7177191 L81.2412869,12.8785702 L81.2412869,12.6968681 Z" id="Fill-18" fill="#000000"></path>
                <path d="M43.9536788,0.680608511 L42.4062257,0.680608511 C42.1089362,0.691629787 41.8705689,0.931119149 41.8616413,1.22869362 L41.8616413,7.24869362 L41.8616413,20.8525234 L41.8616413,26.8993319 C41.8723544,27.1957149 42.109829,27.4337149 42.4062257,27.4444383 L43.9536788,27.4444383 C44.249778,27.4337149 44.4875501,27.1957149 44.4982633,26.8993319 L44.4982633,20.8763532 L44.4982633,7.27848085 L44.4982633,1.22869362 C44.4890381,0.931119149 44.2509684,0.691629787 43.9536788,0.680608511" id="Fill-20" fill="#000000"></path>
                <path d="M60.3148705,19.988634 C60.210715,22.9673574 58.074337,25.3503362 55.3511172,25.3503362 C52.5627257,25.3503362 50.3873152,22.8660809 50.3873152,19.7685064 C50.3754603,16.7391447 52.5508223,14.2992723 55.3511172,14.2992723 C58.1514121,14.2992723 60.318144,16.7448043 60.318144,19.7652298 C60.3062405,19.8367191 60.3062405,19.914166 60.302967,19.988634 L60.3148705,19.988634 Z M62.3979804,0.680548936 L60.8508249,0.680548936 C60.5532378,0.691570213 60.3151681,0.931059574 60.3062405,1.22893191 L60.3062405,7.24863404 L60.3062405,13.7333149 C58.9599563,12.4780809 57.1910984,11.7759957 55.3511172,11.7673574 C51.1134764,11.7673574 47.7507418,15.4374426 47.7507418,19.7592723 C47.7507418,24.1588468 51.1134764,27.828634 55.3511172,27.828634 C59.4908517,27.8864213 62.893463,24.5743787 62.9508973,20.4303787 C62.9511949,20.4142936 62.9514925,20.3982085 62.9514925,20.3818255 L62.9514925,19.9919106 L62.9514925,7.27871915 L62.9514925,1.22893191 C62.9419697,0.927782979 62.698841,0.686804255 62.3979804,0.680548936 L62.3979804,0.680548936 Z" id="Fill-22" fill="#000000"></path>
            </g>
        </g>
    </g>
</svg>