<?xml version="1.0" encoding="UTF-8"?>
<svg width="150px" height="28px" viewBox="0 0 150 28" version="1.1" xmlns="http://www.w3.org/2000/svg" xmlns:xlink="http://www.w3.org/1999/xlink">
    <!-- Generator: Sketch 55.2 (78181) - https://sketchapp.com -->
    <title>Group 5</title>
    <desc>Created with Sketch.</desc>
    <g id="Page-1" stroke="none" stroke-width="1" fill="none" fill-rule="evenodd">
        <g id="Homepage" transform="translate(-28.000000, -4470.000000)" fill="#010202">
            <g id="Group-5" transform="translate(28.000000, 4470.000000)">
                <path d="M121.423404,27.92192 L149.271543,27.92192 L149.271543,0.00032 L121.423404,0.00032 L121.423404,27.92192 Z M125.315426,24.01952 L145.379521,24.01952 L145.379521,3.84832 L125.315426,3.84832 L125.315426,24.01952 Z" id="Fill-1"></path>
                <polygon id="Fill-2" points="127.673059 21.10624 137.704707 6.26624 143.131835 6.15664 132.771463 21.10624"></polygon>
                <path d="M102.400612,16.4344 L104.593963,16.4344 L104.593963,22.4808 L107.116037,19.5128 L109.74742,19.5128 L107.060984,22.6456 L110.02109,27.7568 L107.443963,27.7568 L105.580931,24.2392 L104.593963,25.284 L104.593963,27.7568 L102.400612,27.7568 L102.400612,16.4344 Z M93.3016755,19.5128 L95.4942287,19.5128 L95.4942287,20.4472 C95.7678989,20.1176 96.0974202,19.8424 96.5354521,19.6224 C97.0293351,19.4576 97.467367,19.348 97.8511436,19.348 C98.6194947,19.348 99.2218883,19.5672 99.7700266,19.8976 C100.318165,20.3368 100.646888,20.8864 100.646888,21.5464 L100.646888,27.7568 L98.4543351,27.7568 L98.4543351,22.316 C98.4543351,21.9856 98.3450266,21.7112 98.1256117,21.5464 C97.8511436,21.3264 97.5766755,21.2712 97.24875,21.2712 C96.8091223,21.2712 96.4803989,21.3264 96.2067287,21.4912 C95.9330585,21.7112 95.7136436,21.9312 95.4942287,22.316 L95.4942287,27.7568 L93.3016755,27.7568 L93.3016755,19.5128 Z M89.1894415,24.9536 L89.1894415,23.6896 C88.4777394,23.8 87.9288032,23.9648 87.4907713,24.0744 C86.6681649,24.2944 86.2843883,24.6792 86.2843883,25.1744 C86.2843883,25.5584 86.3394415,25.7784 86.5588564,25.9432 C86.7774734,26.1088 87.0519415,26.1632 87.4357181,26.1632 C87.8194947,26.1632 88.2032713,26.0528 88.5319947,25.8336 C88.8607181,25.6688 89.0809309,25.3392 89.1894415,24.9536 L89.1894415,24.9536 Z M86.5588564,21.9856 L84.3655053,21.9856 C84.3655053,21.1064 84.7500798,20.4472 85.4625798,19.952 C86.1200266,19.5672 86.8875798,19.348 87.8194947,19.348 C89.0809309,19.348 90.0120479,19.5672 90.6152394,19.952 C91.1091223,20.3368 91.3819947,20.7768 91.3819947,21.3816 L91.3819947,26.4384 C91.3819947,26.9328 91.5471543,27.3728 91.8766755,27.7568 L89.6282713,27.7568 C89.5181649,27.592 89.4096543,27.4832 89.3538032,27.3176 C89.2995479,27.208 89.2452926,27.0424 89.1894415,26.8224 C88.9165691,27.208 88.5319947,27.4832 88.0931649,27.6472 C87.7101862,27.8128 87.2163032,27.9216 86.6139096,27.9216 C85.8463564,27.9216 85.2431649,27.6472 84.8043351,27.208 C84.3104521,26.7128 84.0367819,26.1088 84.0367819,25.4488 C84.0367819,24.7888 84.2569947,24.1848 84.6399734,23.7456 C85.02375,23.3056 85.5718883,23.0304 86.2843883,22.92 C87.5458245,22.7008 88.149016,22.5904 88.2032713,22.5904 C88.8607181,22.4256 89.1894415,22.2056 89.1894415,21.9856 C89.1894415,21.6552 89.0809309,21.3816 88.8056649,21.2712 C88.5870479,21.1064 88.2575266,21.0512 87.8194947,21.0512 C87.4357181,21.0512 87.16125,21.1616 86.8875798,21.2712 C86.6681649,21.436 86.5588564,21.6552 86.5588564,21.9856 L86.5588564,21.9856 Z M75.8139096,22.92 L75.8139096,25.7232 L78.7748138,25.7232 C79.2128457,25.7232 79.542367,25.6136 79.8710904,25.284 C80.1447606,25.0096 80.3099202,24.6792 80.3099202,24.2944 C80.3099202,23.9096 80.1447606,23.58 79.8710904,23.3056 C79.542367,23.0304 79.2128457,22.92 78.7748138,22.92 L75.8139096,22.92 Z M75.8139096,18.468 L75.8139096,20.8864 L78.6104521,20.8864 C78.9934309,20.8864 79.3221543,20.7768 79.5966223,20.5568 C79.8710904,20.3368 79.9803989,20.0616 79.9803989,19.732 C79.9803989,19.348 79.8710904,19.0728 79.5966223,18.7976 C79.3221543,18.5784 79.0476862,18.468 78.6647074,18.468 L75.8139096,18.468 Z M73.51125,27.7568 L73.51125,16.4344 L79.2678989,16.4344 C80.0897074,16.4344 80.8030053,16.7096 81.3503457,17.3144 C81.9535372,17.9176 82.2830585,18.6328 82.2830585,19.5128 C82.2830585,20.0072 82.1721543,20.4472 81.9535372,20.8864 C81.679867,21.3264 81.2960904,21.6552 80.8572606,21.876 C81.4061968,22.096 81.8434309,22.4808 82.2280053,22.92 C82.5567287,23.4152 82.7210904,23.9096 82.7210904,24.4592 C82.7210904,25.3936 82.392367,26.1632 81.7891755,26.768 C81.185984,27.4272 80.5285372,27.7568 79.6508777,27.7568 L73.51125,27.7568 Z M62.3841223,22.7552 L65.8373138,22.7552 C65.8373138,22.3704 65.6178989,21.9856 65.2891755,21.7112 C64.9604521,21.3816 64.5766755,21.2168 64.1378457,21.2168 C63.6998138,21.2168 63.260984,21.3816 62.9314628,21.7112 C62.6027394,21.9856 62.3841223,22.3704 62.3841223,22.7552 L62.3841223,22.7552 Z M65.8373138,25.1184 L67.9756117,25.1184 C67.8104521,26.0528 67.317367,26.7128 66.5498138,27.2624 C65.892367,27.7024 65.0697606,27.9216 64.1378457,27.9216 C62.9873138,27.9216 62.0546011,27.4832 61.2870479,26.6576 C60.5194947,25.8336 60.1907713,24.7888 60.1907713,23.4696 C60.1907713,22.316 60.5194947,21.3264 61.2870479,20.5568 C61.9995479,19.7872 62.9873138,19.348 64.1378457,19.348 C65.7280053,19.348 66.823484,19.952 67.4274734,21.1064 C67.7011436,21.4912 67.8655053,21.9856 67.9756117,22.4808 C68.0849202,23.0304 68.0849202,23.58 68.0849202,24.1848 L62.3841223,24.1848 C62.3841223,24.624 62.548484,25.0096 62.8772074,25.3936 C63.2059309,25.8336 63.6447606,26.0528 64.1378457,26.0528 C64.5216223,26.0528 64.8503457,25.9432 65.179867,25.8336 C65.4535372,25.6688 65.6729521,25.4488 65.8373138,25.1184 L65.8373138,25.1184 Z M51.3104521,16.4344 L53.5030053,16.4344 L53.5030053,20.3912 C53.7774734,20.0072 54.16125,19.732 54.5992819,19.5672 C55.0381117,19.4576 55.5311968,19.348 56.0242819,19.348 C56.7375798,19.348 57.3950266,19.5672 57.9431649,20.0072 C58.4913032,20.3912 58.7657713,20.9968 58.7657713,21.6552 L58.7657713,27.7568 L56.6274734,27.7568 L56.6274734,22.5904 C56.6274734,22.1512 56.4631117,21.8208 56.2436968,21.6016 C56.0242819,21.3816 55.6955585,21.2712 55.3117819,21.2712 C54.87375,21.2712 54.4349202,21.3816 54.0511436,21.6552 C53.7224202,21.9312 53.5030053,22.2608 53.5030053,22.7008 L53.5030053,27.7568 L51.3104521,27.7568 L51.3104521,16.4344 Z M46.1569947,27.9216 C45.0056649,27.9216 44.07375,27.4832 43.3069947,26.6576 C42.5936968,25.8336 42.2107181,24.7888 42.2107181,23.4696 C42.2107181,22.3704 42.5936968,21.3816 43.36125,20.5568 C44.1288032,19.7872 45.0607181,19.348 46.1569947,19.348 C47.1439628,19.348 48.0208245,19.6776 48.7333245,20.2824 C49.5008777,20.832 49.8854521,21.6016 49.8854521,22.4808 L47.6921011,22.4808 C47.6921011,22.096 47.5277394,21.8208 47.2532713,21.6016 C46.9245479,21.3264 46.5958245,21.2168 46.1569947,21.2168 C45.6088564,21.2168 45.2250798,21.436 44.8963564,21.876 C44.6218883,22.2608 44.4575266,22.8104 44.4575266,23.4696 C44.4575266,24.2392 44.6218883,24.8448 44.8963564,25.3392 C45.2250798,25.7784 45.6088564,26.0528 46.1569947,26.0528 C46.5415691,26.0528 46.9245479,25.8888 47.1982181,25.6136 C47.5277394,25.3392 47.6921011,25.064 47.6921011,24.6792 L49.8854521,24.6792 C49.8854521,25.6136 49.5008777,26.4384 48.7333245,27.0424 C47.9665691,27.592 47.1439628,27.9216 46.1569947,27.9216 L46.1569947,27.9216 Z M33.7684309,24.9536 L35.960984,24.9536 C35.960984,25.3392 36.0710904,25.6688 36.399016,25.8888 C36.6742819,26.1088 37.0572606,26.2176 37.4960904,26.2176 C37.879867,26.2176 38.2077926,26.1632 38.4272074,26.0528 C38.7024734,25.9432 38.8668351,25.6688 38.8668351,25.3392 C38.8668351,24.8992 38.4830585,24.5696 37.6053989,24.3496 C36.1803989,23.9648 35.3577926,23.7456 35.248484,23.6352 C34.3716223,23.2512 33.9327926,22.7008 33.9327926,21.9312 C33.9327926,21.1616 34.261516,20.5568 34.8647074,20.0616 C35.4678989,19.5672 36.2905053,19.348 37.2766755,19.348 C38.2636436,19.348 39.0303989,19.5672 39.6886436,20.0072 C40.4011436,20.5024 40.7849202,21.1616 40.7849202,22.096 L38.7567287,22.096 C38.7024734,21.7656 38.5373138,21.4912 38.2636436,21.3264 C37.9891755,21.1616 37.6604521,21.0512 37.2766755,21.0512 C36.9479521,21.0512 36.6742819,21.1616 36.4540691,21.2712 C36.2354521,21.436 36.1253457,21.6016 36.1253457,21.876 C36.1253457,22.2056 36.5641755,22.4808 37.3867819,22.6456 C38.6474202,22.8648 39.4692287,23.0304 39.7436968,23.1952 C40.6205585,23.58 41.0593883,24.2392 41.0593883,25.1744 C41.0593883,26.1088 40.6756117,26.8224 39.9080585,27.2624 C39.2498138,27.7024 38.4830585,27.9216 37.4960904,27.9216 C36.399016,27.9216 35.5221543,27.6472 34.8096543,27.0976 C34.0971543,26.6032 33.7684309,25.8888 33.7684309,24.9536 L33.7684309,24.9536 Z M31.5750798,17.1496 L31.5750798,19.5128 L32.836516,19.5128 L32.836516,21.0512 L31.5750798,21.0512 L31.5750798,25.284 C31.5750798,25.4488 31.6851862,25.6136 31.7944947,25.7232 C31.9046011,25.8336 32.0689628,25.8888 32.2875798,25.8888 L32.6171011,25.8888 C32.7264096,25.8336 32.7814628,25.8336 32.836516,25.8336 L32.836516,27.7568 C32.5620479,27.8128 32.2875798,27.8672 32.1232181,27.8672 C31.9046011,27.9216 31.630133,27.9216 31.2463564,27.9216 C30.6982181,27.9216 30.3144415,27.7568 29.9306649,27.3728 C29.6019415,27.0424 29.4375798,26.6576 29.4375798,26.1632 L29.4375798,21.0512 L28.3413032,21.0512 L28.3413032,19.5128 L29.4375798,19.5128 L29.4375798,18.4136 L31.5750798,17.1496 Z M19.9540691,19.5128 L22.1466223,19.5128 L22.1466223,24.9536 C22.1466223,25.2288 22.310984,25.5032 22.5303989,25.7232 C22.8040691,25.9432 23.1327926,26.0528 23.4623138,26.0528 C23.9011436,26.0528 24.2849202,25.9432 24.6128457,25.6688 C24.942367,25.3392 25.1067287,25.0096 25.1067287,24.624 L25.1067287,19.5128 L27.2450266,19.5128 L27.2450266,27.7568 L25.1067287,27.7568 L25.1067287,26.7128 C24.4492819,27.5368 23.6266755,27.9216 22.6405053,27.9216 C21.9272074,27.9216 21.324016,27.7024 20.8309309,27.3728 C20.2827926,26.9872 19.9540691,26.4384 19.9540691,25.7784 L19.9540691,19.5128 Z M12.8825266,22.7552 L16.2806649,22.7552 C16.2806649,22.3704 16.1163032,21.9856 15.7875798,21.7112 C15.4038032,21.3816 15.0200266,21.2168 14.5819947,21.2168 C14.1431649,21.2168 13.7593883,21.3816 13.4306649,21.7112 C13.0468883,21.9856 12.8825266,22.3704 12.8825266,22.7552 L12.8825266,22.7552 Z M16.2806649,25.1184 L18.474016,25.1184 C18.3096543,26.0528 17.8157713,26.7128 17.0482181,27.2624 C16.3907713,27.7024 15.5681649,27.9216 14.5819947,27.9216 C13.4306649,27.9216 12.49875,27.4832 11.78625,26.6576 C11.0178989,25.8336 10.6349202,24.7888 10.6349202,23.4696 C10.6349202,22.316 11.0178989,21.3264 11.7311968,20.5568 C12.49875,19.7872 13.4306649,19.348 14.5819947,19.348 C16.2264096,19.348 17.3226862,19.952 17.9258777,21.1064 C18.1452926,21.4912 18.3096543,21.9856 18.4189628,22.4808 C18.5282713,23.0304 18.5833245,23.58 18.5833245,24.1848 L12.8825266,24.1848 C12.8825266,24.624 13.0468883,25.0096 13.3205585,25.3936 C13.7043351,25.8336 14.0881117,26.0528 14.5819947,26.0528 C14.9657713,26.0528 15.34875,25.9432 15.6232181,25.8336 C15.9519415,25.6688 16.1713564,25.4488 16.2806649,25.1184 L16.2806649,25.1184 Z M2.35699468,18.468 L2.35699468,25.7232 L4.54954787,25.7232 C5.42640957,25.7232 6.03039894,25.3392 6.46843085,24.624 C6.85220745,23.9648 7.01656915,23.14 7.01656915,22.096 C7.01656915,21.2168 6.85220745,20.3912 6.46843085,19.732 C6.03039894,18.8528 5.37215426,18.468 4.54954787,18.468 L2.35699468,18.468 Z M7.9787234e-05,27.7568 L7.9787234e-05,16.4344 L4.82401596,16.4344 C6.35912234,16.4344 7.50965426,17.0392 8.38651596,18.2488 C9.09981383,19.2928 9.48359043,20.5568 9.48359043,22.096 C9.48359043,23.58 9.09981383,24.8992 8.27720745,25.9984 C7.40034574,27.152 6.24901596,27.7568 4.82401596,27.7568 L7.9787234e-05,27.7568 Z" id="Fill-3"></path>
            </g>
        </g>
    </g>
</svg>