<?xml version="1.0" encoding="UTF-8"?>
<svg width="147px" height="44px" viewBox="0 0 147 44" version="1.1" xmlns="http://www.w3.org/2000/svg" xmlns:xlink="http://www.w3.org/1999/xlink">
    <!-- Generator: Sketch 55.2 (78181) - https://sketchapp.com -->
    <title>Group 11</title>
    <desc>Created with Sketch.</desc>
    <defs>
        <path d="M4.82426436,0.15764146 C1.90443745,0.15764146 0.444815106,1.61480698 0.444815106,4.53262824 L0.444815106,4.53262824 L0.444815106,13.2837652 C0.444815106,16.2015865 1.90443745,17.658752 4.82426436,17.658752 L4.82426436,17.658752 L7.95194335,17.658752 C10.871188,17.658752 12.3308104,16.2015865 12.3308104,13.2837652 L12.3308104,13.2837652 L12.3308104,4.53262824 C12.3308104,1.61480698 10.871188,0.15764146 7.95194335,0.15764146 L7.95194335,0.15764146 L4.82426436,0.15764146 Z M2.94719119,13.2837652 L2.94719119,4.53262824 C2.94719119,3.28196721 3.57191188,2.65780011 4.82426436,2.65780011 L4.82426436,2.65780011 L7.95194335,2.65780011 C9.20313139,2.65780011 9.8284343,3.28196721 9.8284343,4.53262824 L9.8284343,4.53262824 L9.8284343,13.2837652 C9.8284343,14.5344262 9.20313139,15.1585933 7.95194335,15.1585933 L7.95194335,15.1585933 L4.82426436,15.1585933 C3.57191188,15.1585933 2.94719119,14.5344262 2.94719119,13.2837652 L2.94719119,13.2837652 Z" id="path-1"></path>
        <path d="M0.0739417781,0.15764146 L0.0739417781,17.658752 L7.58107002,17.658752 C10.0834461,17.658752 11.3352164,16.408091 11.3352164,13.9079323 L11.3352164,13.9079323 L11.3352164,12.0331042 C11.3352164,10.2001586 10.626074,9.15774722 9.20778914,8.90877842 L9.20778914,8.90877842 C10.626074,8.65806452 11.3352164,7.6162348 11.3352164,5.78328926 L11.3352164,5.78328926 L11.3352164,3.90729773 C11.3352164,1.40713908 10.0834461,0.15764146 7.58107002,0.15764146 L7.58107002,0.15764146 L0.0739417781,0.15764146 Z M1.3245476,1.40713908 L7.58107002,1.40713908 C9.24912667,1.40713908 10.0834461,2.24013749 10.0834461,3.90729773 L10.0834461,3.90729773 L10.0834461,5.78328926 C10.0834461,7.44928609 9.24912667,8.28228451 7.58107002,8.28228451 L7.58107002,8.28228451 L1.3245476,8.28228451 L1.3245476,1.40713908 Z M1.3245476,9.53294553 L7.58107002,9.53294553 C9.24912667,9.53294553 10.0834461,10.3671074 10.0834461,12.0331042 L10.0834461,12.0331042 L10.0834461,13.9079323 C10.0834461,15.5762559 9.24912667,16.408091 7.58107002,16.408091 L7.58107002,16.408091 L1.3245476,16.408091 L1.3245476,9.53294553 Z" id="path-3"></path>
        <path d="M3.97538946,0.15764146 C1.47301338,0.15764146 0.221825334,1.40713908 0.221825334,3.90729773 L0.221825334,3.90729773 L0.221825334,13.9079323 C0.221825334,16.408091 1.47301338,17.658752 3.97538946,17.658752 L3.97538946,17.658752 L8.35425649,17.658752 C10.8572148,17.658752 12.1089851,16.408091 12.1089851,13.9079323 L12.1089851,13.9079323 L12.1089851,3.90729773 C12.1089851,1.40713908 10.8572148,0.15764146 8.35425649,0.15764146 L8.35425649,0.15764146 L3.97538946,0.15764146 Z M1.47301338,13.9079323 L1.47301338,3.90729773 C1.47301338,2.24013749 2.30675059,1.40713908 3.97538946,1.40713908 L3.97538946,1.40713908 L8.35425649,1.40713908 C10.0234776,1.40713908 10.8572148,2.24013749 10.8572148,3.90729773 L10.8572148,3.90729773 L10.8572148,13.9079323 C10.8572148,15.5762559 10.0234776,16.408091 8.35425649,16.408091 L8.35425649,16.408091 L3.97538946,16.408091 C2.30675059,16.408091 1.47301338,15.5762559 1.47301338,13.9079323 L1.47301338,13.9079323 Z" id="path-5"></path>
        <polygon id="path-7" points="0 -0.000494613583 43.3168256 -0.000494613583 43.3168256 43.2786885 0 43.2786885"></polygon>
    </defs>
    <g id="Page-1" stroke="none" stroke-width="1" fill="none" fill-rule="evenodd">
        <g id="Homepage" transform="translate(-924.000000, -4466.000000)">
            <g id="Group-11" transform="translate(924.000000, 4466.000000)">
                <g id="Group-2" transform="translate(54.146341, 12.983607)">
                    <polygon id="Fill-1" fill="#000000" points="4.40536496e-13 17.658752 2.5029583 17.658752 2.5029583 0.15764146 4.40536496e-13 0.15764146"></polygon>
                    <polygon id="Fill-2" fill="#000000" points="6.37349017 0.1577578 6.37349017 2.65733474 14.7562754 2.65733474 6.37349017 15.1587097 6.37349017 17.6588683 17.6347648 17.6588683 17.6347648 15.1587097 9.25023289 15.1587097 17.6347648 2.65733474 17.6347648 0.1577578"></polygon>
                    <g id="Group-5" transform="translate(20.585507, 0.000000)">
                        <mask id="mask-2" fill="white">
                            <use xlink:href="#path-1"></use>
                        </mask>
                        <g id="Clip-4"></g>
                        <polygon id="Fill-3" fill="#000000" mask="url(#mask-2)" points="-2.74166798 20.8424114 15.5172935 20.8424114 15.5172935 -3.02601798 -2.74166798 -3.02601798"></polygon>
                    </g>
                    <g id="Group-8" transform="translate(36.887632, 0.000000)">
                        <mask id="mask-4" fill="white">
                            <use xlink:href="#path-3"></use>
                        </mask>
                        <g id="Clip-7"></g>
                        <polygon id="Fill-6" fill="#000000" mask="url(#mask-4)" points="-3.11195909 20.8424114 14.5216994 20.8424114 14.5216994 -3.02601798 -3.11195909 -3.02601798"></polygon>
                    </g>
                    <polygon id="Fill-9" fill="#000000" points="51.6185224 0.1577578 51.6185224 17.6588683 61.6280268 17.6588683 61.6280268 16.4082073 52.8702927 16.4082073 52.8702927 0.1577578"></polygon>
                    <g id="Group-12" transform="translate(65.416349, 0.000000)">
                        <mask id="mask-6" fill="white">
                            <use xlink:href="#path-5"></use>
                        </mask>
                        <g id="Clip-11"></g>
                        <polygon id="Fill-10" fill="#000000" mask="url(#mask-6)" points="-2.96407553 20.8424114 15.2948859 20.8424114 15.2948859 -3.02601798 -2.96407553 -3.02601798"></polygon>
                    </g>
                    <polygon id="Fill-13" fill="#000000" points="91.3296239 0.1577578 83.9470905 8.28240085 82.8210795 8.28240085 82.8210795 0.1577578 81.5704736 0.1577578 81.5704736 17.6588683 82.8210795 17.6588683 82.8210795 9.53306187 83.9470905 9.53306187 91.3296239 17.6588683 92.8305838 17.6588683 85.0731015 8.90831306 92.8305838 0.1577578"></polygon>
                </g>
                <g id="Group-10">
                    <g id="Group-3" transform="translate(0.000000, 0.000556)">
                        <mask id="mask-8" fill="white">
                            <use xlink:href="#path-7"></use>
                        </mask>
                        <g id="Clip-2"></g>
                        <path d="M21.6582891,1.68799251 C10.6477079,1.68799251 1.68973714,10.6380253 1.68973714,21.6394679 C1.68973714,32.6402923 10.6477079,41.5903251 21.6582891,41.5903251 C32.6688702,41.5903251 41.626841,32.6402923 41.626841,21.6394679 C41.626841,10.6380253 32.6688702,1.68799251 21.6582891,1.68799251 M21.6582891,43.2788122 C9.71577199,43.2788122 -0.000247526132,33.5707841 -0.000247526132,21.6394679 C-0.000247526132,9.70691522 9.71577199,-0.000494613583 21.6582891,-0.000494613583 C33.6008061,-0.000494613583 43.3168256,9.70691522 43.3168256,21.6394679 C43.3168256,33.5707841 33.6008061,43.2788122 21.6582891,43.2788122" id="Fill-1" fill="#000000" mask="url(#mask-8)"></path>
                    </g>
                    <path d="M13.2302718,28.7356272 L13.2302718,13.863215 L14.8645631,13.863215 C15.005653,13.863215 15.126322,13.983777 15.126322,14.1253602 L15.126322,28.9977724 L13.4926495,28.9977724 C13.3515596,28.9977724 13.2302718,28.8772103 13.2302718,28.7356272" id="Fill-4" fill="#000000"></path>
                    <path d="M27.0475518,23.6976787 C27.0475518,22.8512712 26.3619044,22.1656131 25.5147462,22.1656131 L19.8265957,22.1656131 L19.8265957,26.8817536 C19.8265957,27.0833087 19.9881065,27.2644609 20.2096424,27.2644609 L25.5147462,27.2644609 C26.3619044,27.2644609 27.0475518,26.5590183 27.0475518,25.7126108 L27.0475518,23.6976787 Z M19.8265957,20.4326108 L25.5147462,20.4326108 C26.3619044,20.4326108 27.0475518,19.747571 27.0475518,18.9011635 L27.0475518,17.1279738 C27.0475518,16.2815663 26.3619044,15.5959082 25.5147462,15.5959082 L20.2096424,15.5959082 C19.9881065,15.5959082 19.8265957,15.7578941 19.8265957,15.9792337 L19.8265957,20.4326108 Z M17.9305455,27.8289386 L17.9305455,14.9918614 C17.9305455,14.3667934 18.43488,13.8629059 19.0598835,13.8629059 L19.3829051,13.8629059 L25.5147462,13.8629059 C27.4107964,13.8629059 28.943602,15.3943532 28.943602,17.2893415 L28.943602,18.8207888 C28.943602,19.7877583 28.1775086,21.0780815 27.0877748,21.2994211 C28.1775086,21.5819691 28.943602,22.8110838 28.943602,23.7780534 L28.943602,25.5518614 C28.943602,27.4456131 27.4107964,28.9980815 25.5147462,28.9980815 L19.1007253,28.9980815 C18.4553009,28.9980815 17.9305455,28.4737911 17.9305455,27.8289386 L17.9305455,27.8289386 Z" id="Fill-6" fill="#000000"></path>
                    <path d="M31.2134166,26.5834398 C30.6162598,26.5834398 30.1304898,27.0687794 30.1304898,27.665407 C30.1304898,28.2614164 30.6162598,28.746756 31.2134166,28.746756 C31.8099546,28.746756 32.2963434,28.2614164 32.2963434,27.665407 C32.2963434,27.0687794 31.8099546,26.5834398 31.2134166,26.5834398" id="Fill-8" fill="#000000"></path>
                </g>
            </g>
        </g>
    </g>
</svg>