<?xml version="1.0" encoding="UTF-8"?>
<svg width="144px" height="16px" viewBox="0 0 144 16" version="1.1" xmlns="http://www.w3.org/2000/svg" xmlns:xlink="http://www.w3.org/1999/xlink">
    <!-- Generator: Sketch 55.2 (78181) - https://sketchapp.com -->
    <title>Group 13</title>
    <desc>Created with Sketch.</desc>
    <defs>
        <polygon id="path-1" points="5.7002457e-05 0.0873513514 12.5089612 0.0873513514 12.5089612 15.5674811 5.7002457e-05 15.5674811"></polygon>
        <polygon id="path-3" points="0.123185586 0.0943960688 11.2130595 0.0943960688 11.2130595 15.2845209 0.123185586 15.2845209"></polygon>
    </defs>
    <g id="Page-1" stroke="none" stroke-width="1" fill="none" fill-rule="evenodd">
        <g id="Homepage" transform="translate(-259.000000, -4482.000000)">
            <g id="Group-13" transform="translate(259.000000, 4482.000000)">
                <path d="M44.972973,15.5675676 L35.8918919,15.5675676 L35.8918919,0.432432432 L44.972973,0.432432432 L44.972973,2.47254485 L38.9954114,2.47254485 L38.9954114,3.848697 C38.9954114,5.3912623 38.3889963,6.04168388 37.2964774,6.04168388 L37.2964774,6.74118323 L44.06878,6.74118323 C44.06878,6.94990481 43.8132969,8.73898722 41.3813493,8.73898722 L38.9954114,8.73898722 L38.9954114,13.4941725 L44.972973,13.4941725 L44.972973,15.5675676" id="Fill-1" fill="#1D1D1B"></path>
                <path d="M107.675676,15.5675676 L104.216216,15.5675676 L104.216216,3.86231537 C104.216216,0.236098466 107.675676,0.434358731 107.675676,0.434358731 L107.675676,15.5675676" id="Fill-3" fill="#1D1D1B"></path>
                <path d="M140.764671,15.5675676 L139.477753,11.5981908 L134.033561,11.5981908 C134.033561,11.5981908 132.982953,14.8996585 132.763685,15.5675676 L129.72973,15.5675676 C130.180193,14.3778546 132.711425,8.0637447 133.907454,4.74084073 C135.060312,1.53668241 135.802469,0.432432432 138.447594,0.432432432 L144,15.5675676 L140.764671,15.5675676 Z M137.759118,6.29553445 C137.243896,4.67117285 137.287636,4.07123933 137.802858,2.3994923 C137.506619,2.2880801 137.133979,2.15777014 137.133979,2.15777014 C137.133979,2.15777014 136.531561,3.68679675 135.956695,5.56021396 L134.599339,9.80995457 L138.913395,9.80995457 L137.759118,6.29553445 L137.759118,6.29553445 Z" id="Fill-5" fill="#1D1D1B"></path>
                <g id="Group-9">
                    <mask id="mask-2" fill="white">
                        <use xlink:href="#path-1"></use>
                    </mask>
                    <g id="Clip-8"></g>
                    <path d="M9.93216511,0.0872648649 L9.93216511,7.73094054 C9.93216511,10.1842739 10.5261307,11.0978595 11.159143,12.0901477 L10.579143,12.5202739 C10.579143,12.5202739 9.44365405,10.7141477 8.55242064,9.27760721 L5.15849435,3.55047207 C2.91060246,0.0996612613 2.08435184,0.0872648649 5.7002457e-05,0.0872648649 L5.7002457e-05,15.5674811 L2.58027322,15.5674811 L2.58027322,7.9264 C2.58027322,5.45634595 1.98260246,4.55112072 1.35358034,3.55912072 L1.94042064,3.12380541 C1.94042064,3.12380541 3.07761966,4.93886847 3.96172776,6.37540901 L7.34852875,12.1184 C9.59642064,15.5461477 10.4295115,15.5602739 12.5089612,15.5602739 L12.5089612,0.0872648649 L9.93216511,0.0872648649" id="Fill-7" fill="#1D1D1B" mask="url(#mask-2)"></path>
                </g>
                <g id="Group-12" transform="translate(68.324324, 0.432432)">
                    <mask id="mask-4" fill="white">
                        <use xlink:href="#path-3"></use>
                    </mask>
                    <g id="Clip-11"></g>
                    <path d="M0.123185586,0.0943960688 L0.123185586,2.14874889 L4.0145009,2.14874889 C4.0145009,6.37463587 4.0145009,15.1796521 4.01997838,15.2846624 L7.27561802,15.2846624 L7.27561802,2.14874889 L8.48556396,2.14874889 C10.9443748,2.14874889 11.1865369,0.307247174 11.2130595,0.0943960688 L0.123185586,0.0943960688" id="Fill-10" fill="#1D1D1B" mask="url(#mask-4)"></path>
                </g>
            </g>
        </g>
    </g>
</svg>